<svg xmlns="http://www.w3.org/2000/svg" viewBox="0 0 841.9 595.3">
<symbol id="edit" width="15" height="14" viewBox="0 0 15 14" fill="none">
<path d="M9.38123 2.30304L12.1885 5.124L5.08258 12.2647L2.27694 9.44372L9.38123 2.30304ZM14.3186 1.62269L13.0667 0.364644C12.5829 -0.121548 11.7972 -0.121548 11.3118 0.364644L10.1126 1.56973L12.9198 4.39071L14.3186 2.98504C14.6939 2.60793 14.6939 1.99978 14.3186 1.62269ZM0.807861 13.4088C0.756773 13.6398 0.96436 13.8469 1.19431 13.7907L4.3225 13.0285L1.51686 10.2076L0.807861 13.4088Z" fill="#BDBDBD"/>
</symbol>

<symbol id="del" width="13" height="18" viewBox="0 0 13 18" fill="none">
<path d="M1.02087 17.1108C1.02087 17.319 1.18847 17.4878 1.39522 17.4878H10.8975C11.1042 17.4878 11.2718 17.319 11.2718 17.1108V4.89489H1.02087V17.1108ZM8.25206 6.97379H9.65586V15.1935H8.25206V6.97379ZM5.44445 6.97379H6.84825V15.1935H5.44445V6.97379ZM2.63684 6.97379H4.04064V15.1935H2.63684V6.97379Z" fill="#BDBDBD"/>
<path d="M9.30163 2.24484V0.889218C9.30163 0.680986 9.13403 0.512192 8.92728 0.512192H3.36541C3.15865 0.512192 2.99106 0.680986 2.99106 0.889218V2.24484V2.48048V2.71612H0.374348C0.167595 2.71612 1.02818e-08 2.88491 1.02818e-08 3.09314V4.04657C1.02818e-08 4.25478 0.167595 4.42359 0.374348 4.42359H1.02086H11.2718H11.9183C12.1251 4.42359 12.2927 4.25478 12.2927 4.04657V3.09314C12.2927 2.88491 12.1251 2.71612 11.9183 2.71612H9.30163V2.48048V2.24484ZM7.89782 2.6386H4.39486V2.48046V2.24482V1.92604H7.89782V2.24484V2.48048V2.6386Z" fill="#BDBDBD"/>
</symbol>
</svg>

